<svg xmlns="http://www.w3.org/2000/svg" viewBox="0 0 512 512" width="512" height="512">
  <rect width="512" height="512" rx="96" fill="#F2C75C"></rect>
  <g transform="translate(35.8 78.1) scale(0.5991)">
    <path d="M 186.0 0.0 Q 186.0 0.0 190.0 0.5 Q 194.0 1.0 197.5 4.0 Q 201.0 7.0 203.0 12.5 Q 205.0 18.0 205.5 24.0 Q 206.0 30.0 207.5 31.5 Q 209.0 33.0 212.0 34.0 Q 215.0 35.0 229.5 35.0 Q 244.0 35.0 247.5 35.5 Q 251.0 36.0 254.5 38.0 Q 258.0 40.0 261.5 46.0 Q 265.0 52.0 265.0 57.5 Q 265.0 63.0 266.0 66.5 Q 267.0 70.0 270.5 73.5 Q 274.0 77.0 281.0 79.5 Q 288.0 82.0 293.0 82.0 Q 298.0 82.0 309.0 79.0 Q 320.0 76.0 335.5 75.5 Q 351.0 75.0 362.0 72.5 Q 373.0 70.0 381.5 70.0 Q 390.0 70.0 394.0 72.0 Q 398.0 74.0 404.5 81.5 Q 411.0 89.0 417.0 92.5 Q 423.0 96.0 429.5 97.5 Q 436.0 99.0 443.5 99.0 Q 451.0 99.0 458.5 97.5 Q 466.0 96.0 476.5 90.5 Q 487.0 85.0 500.5 84.0 Q 514.0 83.0 514.0 82.0 Q 514.0 81.0 509.5 79.5 Q 505.0 78.0 504.5 74.5 Q 504.0 71.0 507.5 67.5 Q 511.0 64.0 516.0 62.5 Q 521.0 61.0 553.0 62.0 Q 585.0 63.0 595.5 60.5 Q 606.0 58.0 613.0 58.0 Q 620.0 58.0 623.0 59.5 Q 626.0 61.0 627.0 62.5 Q 628.0 64.0 628.0 66.5 Q 628.0 69.0 626.0 72.0 Q 624.0 75.0 614.5 81.0 Q 605.0 87.0 596.0 89.0 Q 587.0 91.0 586.5 92.0 Q 586.0 93.0 589.0 95.5 Q 592.0 98.0 598.0 100.5 Q 604.0 103.0 633.0 108.0 Q 662.0 113.0 670.0 117.0 Q 678.0 121.0 681.0 124.0 Q 684.0 127.0 685.0 129.5 Q 686.0 132.0 685.5 138.0 Q 685.0 144.0 680.5 152.5 Q 676.0 161.0 669.0 165.5 Q 662.0 170.0 654.0 172.5 Q 646.0 175.0 643.5 177.5 Q 641.0 180.0 644.0 181.5 Q 647.0 183.0 652.0 182.5 Q 657.0 182.0 668.0 176.5 Q 679.0 171.0 684.5 170.0 Q 690.0 169.0 707.0 169.0 Q 724.0 169.0 728.0 172.0 Q 732.0 175.0 733.0 177.5 Q 734.0 180.0 733.5 183.5 Q 733.0 187.0 730.5 190.5 Q 728.0 194.0 720.5 199.5 Q 713.0 205.0 707.5 210.5 Q 702.0 216.0 699.0 221.0 Q 696.0 226.0 695.5 229.5 Q 695.0 233.0 699.0 237.0 Q 703.0 241.0 704.5 244.5 Q 706.0 248.0 706.0 252.0 Q 706.0 256.0 705.0 258.5 Q 704.0 261.0 698.0 266.5 Q 692.0 272.0 683.5 274.5 Q 675.0 277.0 672.0 279.0 Q 669.0 281.0 667.0 289.5 Q 665.0 298.0 660.5 305.0 Q 656.0 312.0 657.0 316.0 Q 658.0 320.0 659.5 322.0 Q 661.0 324.0 665.5 328.5 Q 670.0 333.0 675.5 336.5 Q 681.0 340.0 687.5 347.0 Q 694.0 354.0 695.0 356.0 Q 696.0 358.0 696.0 361.5 Q 696.0 365.0 693.5 369.5 Q 691.0 374.0 684.5 380.0 Q 678.0 386.0 667.5 393.0 Q 657.0 400.0 640.0 406.0 Q 623.0 412.0 603.0 412.5 Q 583.0 413.0 577.0 418.0 Q 571.0 423.0 568.5 427.0 Q 566.0 431.0 561.5 433.0 Q 557.0 435.0 546.0 435.5 Q 535.0 436.0 529.0 435.0 Q 523.0 434.0 517.5 431.5 Q 512.0 429.0 500.5 421.5 Q 489.0 414.0 481.5 412.0 Q 474.0 410.0 470.5 410.5 Q 467.0 411.0 466.0 412.0 Q 465.0 413.0 472.5 419.5 Q 480.0 426.0 482.5 432.0 Q 485.0 438.0 486.5 448.0 Q 488.0 458.0 488.0 468.5 Q 488.0 479.0 489.5 485.0 Q 491.0 491.0 495.5 494.0 Q 500.0 497.0 506.5 497.0 Q 513.0 497.0 515.5 496.0 Q 518.0 495.0 522.0 495.5 Q 526.0 496.0 529.5 498.0 Q 533.0 500.0 534.5 502.0 Q 536.0 504.0 536.0 508.5 Q 536.0 513.0 533.5 515.5 Q 531.0 518.0 514.5 527.5 Q 498.0 537.0 490.0 545.5 Q 482.0 554.0 473.0 560.5 Q 464.0 567.0 454.0 572.5 Q 444.0 578.0 435.5 585.0 Q 427.0 592.0 423.5 592.5 Q 420.0 593.0 413.0 587.5 Q 406.0 582.0 399.0 585.5 Q 392.0 589.0 387.5 589.0 Q 383.0 589.0 374.0 584.5 Q 365.0 580.0 360.5 575.5 Q 356.0 571.0 351.5 563.5 Q 347.0 556.0 341.5 538.5 Q 336.0 521.0 332.5 517.5 Q 329.0 514.0 319.0 507.5 Q 309.0 501.0 305.5 494.5 Q 302.0 488.0 303.0 482.5 Q 304.0 477.0 311.0 471.0 Q 318.0 465.0 322.5 458.0 Q 327.0 451.0 326.5 445.0 Q 326.0 439.0 323.5 436.0 Q 321.0 433.0 316.0 430.5 Q 311.0 428.0 308.0 425.0 Q 305.0 422.0 301.5 413.0 Q 298.0 404.0 298.0 383.5 Q 298.0 363.0 300.5 356.5 Q 303.0 350.0 310.5 339.5 Q 318.0 329.0 319.0 323.0 Q 320.0 317.0 313.5 314.5 Q 307.0 312.0 299.5 312.0 Q 292.0 312.0 285.5 314.5 Q 279.0 317.0 259.5 316.0 Q 240.0 315.0 234.0 317.5 Q 228.0 320.0 222.5 320.0 Q 217.0 320.0 209.5 315.0 Q 202.0 310.0 189.0 295.5 Q 176.0 281.0 167.5 278.0 Q 159.0 275.0 153.0 275.5 Q 147.0 276.0 139.5 281.0 Q 132.0 286.0 109.5 285.5 Q 87.0 285.0 76.0 277.0 Q 65.0 269.0 59.5 266.5 Q 54.0 264.0 51.5 261.5 Q 49.0 259.0 47.5 254.5 Q 46.0 250.0 47.5 235.0 Q 49.0 220.0 46.0 214.5 Q 43.0 209.0 37.5 202.5 Q 32.0 196.0 29.5 186.0 Q 27.0 176.0 23.0 174.0 Q 19.0 172.0 12.0 172.0 Q 5.0 172.0 2.5 170.0 Q 0.0 168.0 5.5 141.0 Q 11.0 114.0 15.0 104.5 Q 19.0 95.0 24.5 87.5 Q 30.0 80.0 40.5 69.0 Q 51.0 58.0 64.0 41.0 Q 77.0 24.0 84.0 20.0 Q 91.0 16.0 97.0 14.0 Q 103.0 12.0 106.0 13.0 Q 109.0 14.0 109.5 18.5 Q 110.0 23.0 106.5 29.0 Q 103.0 35.0 96.0 43.5 Q 89.0 52.0 88.5 56.5 Q 88.0 61.0 90.0 69.0 Q 92.0 77.0 91.5 85.0 Q 91.0 93.0 87.5 102.0 Q 84.0 111.0 79.5 117.5 Q 75.0 124.0 74.0 127.0 Q 73.0 130.0 77.5 134.0 Q 82.0 138.0 85.5 145.5 Q 89.0 153.0 91.0 155.0 Q 93.0 157.0 99.0 158.0 Q 105.0 159.0 107.5 157.5 Q 110.0 156.0 116.0 148.5 Q 122.0 141.0 122.5 136.0 Q 123.0 131.0 121.5 126.0 Q 120.0 121.0 114.5 113.5 Q 109.0 106.0 107.5 102.0 Q 106.0 98.0 106.0 88.5 Q 106.0 79.0 109.5 74.0 Q 113.0 69.0 118.0 66.5 Q 123.0 64.0 145.0 58.0 Q 167.0 52.0 177.0 47.0 Q 187.0 42.0 188.5 40.5 Q 190.0 39.0 189.5 38.5 Q 189.0 38.0 181.5 37.5 Q 174.0 37.0 171.5 34.5 Q 169.0 32.0 167.5 28.5 Q 166.0 25.0 166.5 21.5 Q 167.0 18.0 170.5 12.0 Q 174.0 6.0 178.0 3.5 Q 182.0 1.0 183.5 1.0 Z" fill="#1E4D5C"></path>
  </g>
</svg>